<svg width="1440" height="176" viewBox="0 0 1440 176" fill="none" xmlns="http://www.w3.org/2000/svg">
<path d="M0 -12C0 -28.5685 13.4315 -42 30 -42H1410C1426.57 -42 1440 -28.5685 1440 -12V146C1440 162.569 1426.57 176 1410 176H30C13.4314 176 0 162.569 0 146V-12Z" fill="white"/>
<path d="M0.5 -12C0.5 -28.2924 13.7076 -41.5 30 -41.5H1410C1426.29 -41.5 1439.5 -28.2924 1439.5 -12V146C1439.5 162.292 1426.29 175.5 1410 175.5H30C13.7076 175.5 0.5 162.292 0.5 146V-12Z" stroke="#ABABAB" stroke-opacity="0.2"/>
</svg>
